<svg width="750" height="700" viewBox="0 0 750 700" fill="none" xmlns="http://www.w3.org/2000/svg">
<rect width="750" height="700" rx="100" fill="#D9D9D9"/>
<g filter="url(#filter0_d_81_9)">
<path d="M91 102C91 74.3858 113.386 52 141 52H619C646.614 52 669 74.3858 669 102V596C669 623.614 646.614 646 619 646H141C113.386 646 91 623.614 91 596V102Z" fill="#080846"/>
<path d="M91 102C91 74.3858 113.386 52 141 52H619C646.614 52 669 74.3858 669 102V596C669 623.614 646.614 646 619 646H141C113.386 646 91 623.614 91 596V102Z" fill="#080846"/>
<path d="M141 646H619C646.614 646 669 623.614 669 596V102C669 74.3858 646.614 52 619 52H141C113.386 52 91 74.3858 91 102V596C91 623.614 113.386 646 141 646Z" stroke="black"/>
</g>
<path d="M349.803 258.907L412.47 198.741C412.47 198.741 475.137 138.574 537.803 198.741C600.47 258.907 537.803 319.074 537.803 319.074L454.248 399.296C454.248 399.296 391.581 459.463 328.915 399.296C317.165 388.015 309.885 373.024 309.885 373.024L344.905 339.451C344.905 339.451 343.495 353.128 360.248 369.213C360.248 369.213 391.581 399.296 422.915 369.213L506.47 288.991C506.47 288.991 537.803 258.907 506.47 228.824C475.137 198.741 443.803 228.824 443.803 228.824L404.856 266.218C404.856 266.218 385.492 250.965 345.887 262.668L349.803 258.907Z" fill="white"/>
<path d="M410.852 439.407L348.185 499.574C348.185 499.574 285.519 559.74 222.852 499.574C160.185 439.407 222.852 379.24 222.852 379.24L306.407 299.018C306.407 299.018 369.074 238.851 431.741 299.018C443.491 310.299 450.77 325.291 450.77 325.291L415.74 358.874C415.74 358.874 417.15 345.186 400.397 329.101C400.397 329.101 369.064 299.018 337.73 329.101L254.175 409.324C254.175 409.324 222.841 439.407 254.175 469.49C285.508 499.574 316.841 469.49 316.841 469.49L355.789 432.097C355.789 432.097 375.153 447.349 414.758 435.647L410.852 439.407Z" fill="white"/>
<path d="M410.852 439.13L348.185 499.296C348.185 499.296 285.519 559.463 222.852 499.296C160.185 439.13 222.852 378.963 222.852 378.963L306.407 298.741C306.407 298.741 369.074 238.574 431.741 298.741C443.491 310.022 450.771 325.014 450.771 325.014L415.74 358.597C415.74 358.597 417.15 344.909 400.397 328.824C400.397 328.824 369.064 298.741 337.73 328.824L254.175 409.046C254.175 409.046 222.841 439.13 254.175 469.213C285.508 499.296 316.841 469.213 316.841 469.213L355.789 431.819C355.789 431.819 375.153 447.072 414.758 435.369L410.852 439.13Z" fill="white"/>
<defs>
<filter id="filter0_d_81_9" x="87" y="52" width="586" height="602" filterUnits="userSpaceOnUse" color-interpolation-filters="sRGB">
<feFlood flood-opacity="0" result="BackgroundImageFix"/>
<feColorMatrix in="SourceAlpha" type="matrix" values="0 0 0 0 0 0 0 0 0 0 0 0 0 0 0 0 0 0 127 0" result="hardAlpha"/>
<feOffset dy="4"/>
<feGaussianBlur stdDeviation="2"/>
<feComposite in2="hardAlpha" operator="out"/>
<feColorMatrix type="matrix" values="0 0 0 0 0 0 0 0 0 0 0 0 0 0 0 0 0 0 0.25 0"/>
<feBlend mode="normal" in2="BackgroundImageFix" result="effect1_dropShadow_81_9"/>
<feBlend mode="normal" in="SourceGraphic" in2="effect1_dropShadow_81_9" result="shape"/>
</filter>
</defs>
</svg>
